<?xml version="1.0" encoding="UTF-8"?>
<svg id="Layer_1" data-name="Layer 1" xmlns="http://www.w3.org/2000/svg" viewBox="0 0 96 96">
  <defs>
    <style>
      .cls-1 {
        fill: #f1f0ee;
      }
    </style>
  </defs>
  <path class="cls-1" d="M96,96H0V0H96V96ZM37.21,30.52l-.12,.39c2.03,0,3.05,.05,1.69,4.35l-7.62,24.15c-1.47,4.64-2.69,5.08-4.67,5.08l-.14,.44,15.55,.02,.14-.44c-1.98,0-2.92-.44-1.46-5.09l7.62-24.15c1.36-4.3,2.46-4.35,4.44-4.35l.12-.39-15.55-.02Zm16.73,.02l-.12,.39c2.03,0,3.05,.05,1.69,4.35l-7.62,24.15c-1.47,4.64-2.69,5.08-4.67,5.08l-.14,.44,15.55,.02,.14-.44c-1.98,0-2.92-.44-1.46-5.09l7.62-24.15c1.36-4.3,2.46-4.35,4.44-4.35l.12-.39-15.55-.02Z"/>
</svg>